%TF.GenerationSoftware,KiCad,Pcbnew,(7.0.0)*%
%TF.CreationDate,2023-08-26T23:12:35+05:30*%
%TF.ProjectId,sat-pcb,7361742d-7063-4622-9e6b-696361645f70,2.0.1*%
%TF.SameCoordinates,Original*%
%TF.FileFunction,Legend,Top*%
%TF.FilePolarity,Positive*%
%FSLAX46Y46*%
G04 Gerber Fmt 4.6, Leading zero omitted, Abs format (unit mm)*
G04 Created by KiCad (PCBNEW (7.0.0)) date 2023-08-26 23:12:35*
%MOMM*%
%LPD*%
G01*
G04 APERTURE LIST*
%ADD10C,0.150000*%
%ADD11C,0.127000*%
%ADD12C,0.200000*%
%ADD13C,0.120000*%
G04 APERTURE END LIST*
D10*
X135131023Y-90624142D02*
X135083404Y-90671761D01*
X135083404Y-90671761D02*
X134940547Y-90719380D01*
X134940547Y-90719380D02*
X134845309Y-90719380D01*
X134845309Y-90719380D02*
X134702452Y-90671761D01*
X134702452Y-90671761D02*
X134607214Y-90576523D01*
X134607214Y-90576523D02*
X134559595Y-90481285D01*
X134559595Y-90481285D02*
X134511976Y-90290809D01*
X134511976Y-90290809D02*
X134511976Y-90147952D01*
X134511976Y-90147952D02*
X134559595Y-89957476D01*
X134559595Y-89957476D02*
X134607214Y-89862238D01*
X134607214Y-89862238D02*
X134702452Y-89767000D01*
X134702452Y-89767000D02*
X134845309Y-89719380D01*
X134845309Y-89719380D02*
X134940547Y-89719380D01*
X134940547Y-89719380D02*
X135083404Y-89767000D01*
X135083404Y-89767000D02*
X135131023Y-89814619D01*
X135559595Y-90719380D02*
X135559595Y-90052714D01*
X135559595Y-90243190D02*
X135607214Y-90147952D01*
X135607214Y-90147952D02*
X135654833Y-90100333D01*
X135654833Y-90100333D02*
X135750071Y-90052714D01*
X135750071Y-90052714D02*
X135845309Y-90052714D01*
X136083405Y-90052714D02*
X136321500Y-90719380D01*
X136559595Y-90052714D02*
X136321500Y-90719380D01*
X136321500Y-90719380D02*
X136226262Y-90957476D01*
X136226262Y-90957476D02*
X136178643Y-91005095D01*
X136178643Y-91005095D02*
X136083405Y-91052714D01*
X136892929Y-90671761D02*
X136988167Y-90719380D01*
X136988167Y-90719380D02*
X137178643Y-90719380D01*
X137178643Y-90719380D02*
X137273881Y-90671761D01*
X137273881Y-90671761D02*
X137321500Y-90576523D01*
X137321500Y-90576523D02*
X137321500Y-90528904D01*
X137321500Y-90528904D02*
X137273881Y-90433666D01*
X137273881Y-90433666D02*
X137178643Y-90386047D01*
X137178643Y-90386047D02*
X137035786Y-90386047D01*
X137035786Y-90386047D02*
X136940548Y-90338428D01*
X136940548Y-90338428D02*
X136892929Y-90243190D01*
X136892929Y-90243190D02*
X136892929Y-90195571D01*
X136892929Y-90195571D02*
X136940548Y-90100333D01*
X136940548Y-90100333D02*
X137035786Y-90052714D01*
X137035786Y-90052714D02*
X137178643Y-90052714D01*
X137178643Y-90052714D02*
X137273881Y-90100333D01*
X137607215Y-90052714D02*
X137988167Y-90052714D01*
X137750072Y-89719380D02*
X137750072Y-90576523D01*
X137750072Y-90576523D02*
X137797691Y-90671761D01*
X137797691Y-90671761D02*
X137892929Y-90719380D01*
X137892929Y-90719380D02*
X137988167Y-90719380D01*
X138750072Y-90719380D02*
X138750072Y-90195571D01*
X138750072Y-90195571D02*
X138702453Y-90100333D01*
X138702453Y-90100333D02*
X138607215Y-90052714D01*
X138607215Y-90052714D02*
X138416739Y-90052714D01*
X138416739Y-90052714D02*
X138321501Y-90100333D01*
X138750072Y-90671761D02*
X138654834Y-90719380D01*
X138654834Y-90719380D02*
X138416739Y-90719380D01*
X138416739Y-90719380D02*
X138321501Y-90671761D01*
X138321501Y-90671761D02*
X138273882Y-90576523D01*
X138273882Y-90576523D02*
X138273882Y-90481285D01*
X138273882Y-90481285D02*
X138321501Y-90386047D01*
X138321501Y-90386047D02*
X138416739Y-90338428D01*
X138416739Y-90338428D02*
X138654834Y-90338428D01*
X138654834Y-90338428D02*
X138750072Y-90290809D01*
X139369120Y-90719380D02*
X139273882Y-90671761D01*
X139273882Y-90671761D02*
X139226263Y-90576523D01*
X139226263Y-90576523D02*
X139226263Y-89719380D01*
X142179595Y-84750428D02*
X142941500Y-84750428D01*
X142560547Y-85131380D02*
X142560547Y-84369476D01*
X144017690Y-84750428D02*
X144779595Y-84750428D01*
X121115595Y-99066380D02*
X121115595Y-99875904D01*
X121115595Y-99875904D02*
X121163214Y-99971142D01*
X121163214Y-99971142D02*
X121210833Y-100018761D01*
X121210833Y-100018761D02*
X121306071Y-100066380D01*
X121306071Y-100066380D02*
X121496547Y-100066380D01*
X121496547Y-100066380D02*
X121591785Y-100018761D01*
X121591785Y-100018761D02*
X121639404Y-99971142D01*
X121639404Y-99971142D02*
X121687023Y-99875904D01*
X121687023Y-99875904D02*
X121687023Y-99066380D01*
X122115595Y-100018761D02*
X122258452Y-100066380D01*
X122258452Y-100066380D02*
X122496547Y-100066380D01*
X122496547Y-100066380D02*
X122591785Y-100018761D01*
X122591785Y-100018761D02*
X122639404Y-99971142D01*
X122639404Y-99971142D02*
X122687023Y-99875904D01*
X122687023Y-99875904D02*
X122687023Y-99780666D01*
X122687023Y-99780666D02*
X122639404Y-99685428D01*
X122639404Y-99685428D02*
X122591785Y-99637809D01*
X122591785Y-99637809D02*
X122496547Y-99590190D01*
X122496547Y-99590190D02*
X122306071Y-99542571D01*
X122306071Y-99542571D02*
X122210833Y-99494952D01*
X122210833Y-99494952D02*
X122163214Y-99447333D01*
X122163214Y-99447333D02*
X122115595Y-99352095D01*
X122115595Y-99352095D02*
X122115595Y-99256857D01*
X122115595Y-99256857D02*
X122163214Y-99161619D01*
X122163214Y-99161619D02*
X122210833Y-99114000D01*
X122210833Y-99114000D02*
X122306071Y-99066380D01*
X122306071Y-99066380D02*
X122544166Y-99066380D01*
X122544166Y-99066380D02*
X122687023Y-99114000D01*
X123448928Y-99542571D02*
X123591785Y-99590190D01*
X123591785Y-99590190D02*
X123639404Y-99637809D01*
X123639404Y-99637809D02*
X123687023Y-99733047D01*
X123687023Y-99733047D02*
X123687023Y-99875904D01*
X123687023Y-99875904D02*
X123639404Y-99971142D01*
X123639404Y-99971142D02*
X123591785Y-100018761D01*
X123591785Y-100018761D02*
X123496547Y-100066380D01*
X123496547Y-100066380D02*
X123115595Y-100066380D01*
X123115595Y-100066380D02*
X123115595Y-99066380D01*
X123115595Y-99066380D02*
X123448928Y-99066380D01*
X123448928Y-99066380D02*
X123544166Y-99114000D01*
X123544166Y-99114000D02*
X123591785Y-99161619D01*
X123591785Y-99161619D02*
X123639404Y-99256857D01*
X123639404Y-99256857D02*
X123639404Y-99352095D01*
X123639404Y-99352095D02*
X123591785Y-99447333D01*
X123591785Y-99447333D02*
X123544166Y-99494952D01*
X123544166Y-99494952D02*
X123448928Y-99542571D01*
X123448928Y-99542571D02*
X123115595Y-99542571D01*
X125429880Y-99018761D02*
X124572738Y-100304476D01*
X125525119Y-100161619D02*
X126287023Y-100161619D01*
X126287024Y-100161619D02*
X127048928Y-100161619D01*
X127048929Y-100161619D02*
X127810833Y-100161619D01*
X127810834Y-100161619D02*
X128572738Y-100161619D01*
X128572739Y-100161619D02*
X129334643Y-100161619D01*
X129334644Y-100161619D02*
X130096548Y-100161619D01*
X124982261Y-100591142D02*
X125839404Y-101876857D01*
%TO.C,A1*%
X167716833Y-88028999D02*
X167716833Y-87362332D01*
X168116833Y-88162332D02*
X166716833Y-87695666D01*
X166716833Y-87695666D02*
X168116833Y-87228999D01*
X168116833Y-86028999D02*
X168116833Y-86828999D01*
X168116833Y-86428999D02*
X166716833Y-86428999D01*
X166716833Y-86428999D02*
X166916833Y-86562332D01*
X166916833Y-86562332D02*
X167050166Y-86695666D01*
X167050166Y-86695666D02*
X167116833Y-86828999D01*
%TO.C,VIN1*%
X141931072Y-87421380D02*
X142264405Y-88421380D01*
X142264405Y-88421380D02*
X142597738Y-87421380D01*
X142931072Y-88421380D02*
X142931072Y-87421380D01*
X143407262Y-88421380D02*
X143407262Y-87421380D01*
X143407262Y-87421380D02*
X143978690Y-88421380D01*
X143978690Y-88421380D02*
X143978690Y-87421380D01*
X144978690Y-88421380D02*
X144407262Y-88421380D01*
X144692976Y-88421380D02*
X144692976Y-87421380D01*
X144692976Y-87421380D02*
X144597738Y-87564238D01*
X144597738Y-87564238D02*
X144502500Y-87659476D01*
X144502500Y-87659476D02*
X144407262Y-87707095D01*
%TO.C,J3*%
X132744166Y-87611380D02*
X132744166Y-88325666D01*
X132744166Y-88325666D02*
X132696547Y-88468523D01*
X132696547Y-88468523D02*
X132601309Y-88563761D01*
X132601309Y-88563761D02*
X132458452Y-88611380D01*
X132458452Y-88611380D02*
X132363214Y-88611380D01*
X133125119Y-87611380D02*
X133744166Y-87611380D01*
X133744166Y-87611380D02*
X133410833Y-87992333D01*
X133410833Y-87992333D02*
X133553690Y-87992333D01*
X133553690Y-87992333D02*
X133648928Y-88039952D01*
X133648928Y-88039952D02*
X133696547Y-88087571D01*
X133696547Y-88087571D02*
X133744166Y-88182809D01*
X133744166Y-88182809D02*
X133744166Y-88420904D01*
X133744166Y-88420904D02*
X133696547Y-88516142D01*
X133696547Y-88516142D02*
X133648928Y-88563761D01*
X133648928Y-88563761D02*
X133553690Y-88611380D01*
X133553690Y-88611380D02*
X133267976Y-88611380D01*
X133267976Y-88611380D02*
X133172738Y-88563761D01*
X133172738Y-88563761D02*
X133125119Y-88516142D01*
D11*
%TO.C,A1*%
X122827500Y-81109000D02*
X166007500Y-81109000D01*
X168547500Y-83649000D02*
X168547500Y-103969000D01*
X120287500Y-103969000D02*
X120287500Y-83649000D01*
X166007500Y-106509000D02*
X122827500Y-106509000D01*
X168547500Y-83649000D02*
G75*
G03*
X166007500Y-81109000I-2540001J-1D01*
G01*
X122827500Y-81109000D02*
G75*
G03*
X120287500Y-83649000I1J-2540001D01*
G01*
X166007500Y-106509000D02*
G75*
G03*
X168547500Y-103969000I0J2540000D01*
G01*
X120287500Y-103969000D02*
G75*
G03*
X122827500Y-106509000I2540000J0D01*
G01*
D12*
X162297500Y-79999000D02*
G75*
G03*
X162297500Y-79999000I-100000J0D01*
G01*
X162297500Y-107619000D02*
G75*
G03*
X162297500Y-107619000I-100000J0D01*
G01*
D13*
%TO.C,VIN1*%
X144462500Y-85434000D02*
X144462500Y-86129000D01*
X143777500Y-85434000D02*
X144462500Y-85434000D01*
X143092500Y-85434000D02*
X142217500Y-85434000D01*
X143092500Y-85434000D02*
X143092500Y-85520724D01*
X142217500Y-85434000D02*
X142217500Y-85734507D01*
X142217500Y-86523493D02*
X142217500Y-86824000D01*
X143092500Y-86737276D02*
X143092500Y-86824000D01*
X143092500Y-86824000D02*
X142217500Y-86824000D01*
%TO.C,J3*%
X132382500Y-89119000D02*
X133077500Y-89119000D01*
X132382500Y-89804000D02*
X132382500Y-89119000D01*
X132382500Y-90489000D02*
X132382500Y-91364000D01*
X132382500Y-90489000D02*
X132469224Y-90489000D01*
X132382500Y-91364000D02*
X132683007Y-91364000D01*
X133471993Y-91364000D02*
X133772500Y-91364000D01*
X133685776Y-90489000D02*
X133772500Y-90489000D01*
X133772500Y-90489000D02*
X133772500Y-91364000D01*
%TD*%
M02*
