M48
; DRILL file {KiCad (7.0.0)} date Sat Aug 26 23:12:33 2023
; FORMAT={-:-/ absolute / inch / decimal}
; #@! TF.CreationDate,2023-08-26T23:12:33+05:30
; #@! TF.GenerationSoftware,Kicad,Pcbnew,(7.0.0)
; #@! TF.FileFunction,Plated,1,2,PTH
FMAT,2
INCH
; #@! TA.AperFunction,Plated,PTH,ComponentDrill
T1C0.0197
; #@! TA.AperFunction,Plated,PTH,ComponentDrill
T2C0.0315
; #@! TA.AperFunction,Plated,PTH,ComponentDrill
T3C0.0350
%
G90
G05
T1
X5.2393Y-3.5356
X5.2393Y-3.575
X5.6212Y-3.3909
X5.6605Y-3.3909
T2
X4.8279Y-3.5106
X4.8279Y-3.6106
X4.8279Y-3.7106
X4.8279Y-3.8106
X5.1279Y-3.5106
X5.1279Y-3.6106
X5.1279Y-3.7106
X5.1279Y-3.8106
X6.3782Y-3.5602
X6.3782Y-3.6389
X6.3782Y-3.7177
X6.3782Y-3.7964
X6.4782Y-3.6602
X6.4782Y-3.7389
T3
X4.9857Y-3.2433
X4.9857Y-4.1433
X5.0857Y-3.2433
X5.0857Y-4.1433
X5.1857Y-3.2433
X5.1857Y-4.1433
X5.2857Y-3.2433
X5.2857Y-4.1433
X5.3857Y-3.2433
X5.3857Y-4.1433
X5.4857Y-3.2433
X5.4857Y-4.1433
X5.5857Y-3.2433
X5.5857Y-4.1433
X5.6857Y-3.2433
X5.6857Y-4.1433
X5.7857Y-3.2433
X5.7857Y-4.1433
X5.8857Y-3.2433
X5.8857Y-4.1433
X5.9857Y-3.2433
X5.9857Y-4.1433
X6.0857Y-3.2433
X6.0857Y-4.1433
X6.1857Y-3.2433
X6.1857Y-4.1433
X6.2857Y-3.2433
X6.2857Y-4.1433
X6.3857Y-3.2433
X6.3857Y-4.1433
T0
M30
